<svg width="53" height="50" viewBox="0 0 53 50" fill="none" xmlns="http://www.w3.org/2000/svg">
<path fill-rule="evenodd" clip-rule="evenodd" d="M45.2821 20.121L51.9845 20.975C52.404 21.0282 52.7171 21.3702 52.7171 21.7742V28.2258C52.7171 28.6298 52.404 28.9718 51.9845 29.0258L45.2821 29.8798C44.8467 31.4089 44.212 32.8581 43.4061 34.2024L47.5151 39.3371C47.7725 39.6581 47.7405 40.1113 47.4417 40.3968L42.6677 44.9589C42.5039 45.1153 42.2879 45.1952 42.0702 45.1952C41.8904 45.1952 41.7098 45.1411 41.5579 45.029L36.1847 41.1024C34.7779 41.8726 33.2613 42.479 31.6613 42.8952L30.7676 49.3C30.7119 49.7008 30.354 50 29.9312 50H23.1799C22.7571 50 22.3992 49.7008 22.3435 49.2992L21.4498 42.8944C19.8498 42.4782 18.3332 41.8718 16.9264 41.1016L11.5532 45.0282C11.4013 45.1403 11.2207 45.1944 11.0409 45.1944C10.8232 45.1944 10.6072 45.1145 10.4434 44.9581L5.66938 40.396C5.37064 40.1105 5.33941 39.6573 5.59596 39.3363L9.70501 34.2016C8.89906 32.8573 8.26444 31.4081 7.82897 29.879L1.12657 29.025C0.707137 28.9718 0.394043 28.6298 0.394043 28.2258V21.7742C0.394043 21.3702 0.707137 21.0282 1.12741 20.9742L7.82982 20.1202C8.26528 18.5911 8.89991 17.1419 9.70585 15.7976L5.59681 10.6629C5.33941 10.3419 5.37148 9.88871 5.67023 9.60323L10.4443 5.04113C10.743 4.75484 11.2173 4.72419 11.5532 4.97097L16.9264 8.89758C18.3332 8.12742 19.8498 7.52097 21.4498 7.10484L22.3435 0.7C22.3992 0.299194 22.7571 0 23.1799 0H29.9312C30.354 0 30.7119 0.299194 30.7684 0.700806L31.6621 7.10565C33.2622 7.52177 34.7787 8.12823 36.1855 8.89839L41.5588 4.97177C41.8946 4.72419 42.3681 4.75564 42.6677 5.04194L47.4417 9.60403C47.7405 9.88952 47.7717 10.3427 47.5151 10.6637L43.4061 15.7984C44.212 17.1427 44.8467 18.5919 45.2821 20.121ZM18.9602 25C18.9602 29.0089 22.3603 32.2581 26.5554 32.2581C30.7506 32.2581 34.1507 29.0089 34.1507 25C34.1507 20.9911 30.7506 17.7419 26.5554 17.7419C22.3603 17.7419 18.9602 20.9911 18.9602 25Z" fill="white"/>
</svg>
