<svg width="48" height="56" viewBox="0 0 48 56" fill="none" xmlns="http://www.w3.org/2000/svg">
<path fill-rule="evenodd" clip-rule="evenodd" d="M31.4739 14.4V0H2.27767C1.23697 0 0.394043 0.8055 0.394043 1.8V54C0.394043 54.9945 1.23697 55.8 2.27767 55.8H45.6011C46.6418 55.8 47.4848 54.9945 47.4848 54V15.3H32.4157C31.8958 15.3 31.4739 14.8968 31.4739 14.4ZM12.6367 14.4H20.1712C20.692 14.4 21.113 14.8032 21.113 15.3C21.113 15.7968 20.692 16.2 20.1712 16.2H12.6367C12.1159 16.2 11.6949 15.7968 11.6949 15.3C11.6949 14.8032 12.1159 14.4 12.6367 14.4ZM12.6367 43.2H35.2402C35.761 43.2 36.182 42.7968 36.182 42.3C36.182 41.8032 35.761 41.4 35.2402 41.4H12.6367C12.1159 41.4 11.6949 41.8032 11.6949 42.3C11.6949 42.7968 12.1159 43.2 12.6367 43.2ZM35.2402 34.2H12.6367C12.1159 34.2 11.6949 33.7968 11.6949 33.3C11.6949 32.8032 12.1159 32.4 12.6367 32.4H35.2402C35.761 32.4 36.182 32.8032 36.182 33.3C36.182 33.7968 35.761 34.2 35.2402 34.2ZM35.2402 25.2C35.761 25.2 36.182 24.7968 36.182 24.3C36.182 23.8032 35.761 23.4 35.2402 23.4H12.6367C12.1159 23.4 11.6949 23.8032 11.6949 24.3C11.6949 24.7968 12.1159 25.2 12.6367 25.2H35.2402Z" fill="white"/>
</svg>
