<svg width="58" height="43" viewBox="0 0 58 43" fill="none" xmlns="http://www.w3.org/2000/svg">
<path d="M52.3795 0.887097C49.6252 0.887097 47.3369 2.80944 46.8932 5.32258H35.6699V0.887097C35.6699 0.397419 35.254 0 34.7416 0H23.6018C23.0894 0 22.6735 0.397419 22.6735 0.887097V5.32258H11.4502C11.0065 2.80944 8.71821 0.887097 5.96391 0.887097C2.89213 0.887097 0.394043 3.27427 0.394043 6.20968C0.394043 9.14508 2.89213 11.5323 5.96391 11.5323C8.71821 11.5323 11.0056 9.60992 11.4502 7.09677H22.6735V11.5323C22.6735 12.0219 23.0894 12.4194 23.6018 12.4194H34.7416C35.254 12.4194 35.6699 12.0219 35.6699 11.5323V7.09677H46.8932C47.3369 9.60992 49.6252 11.5323 52.3795 11.5323C55.4513 11.5323 57.9494 9.14508 57.9494 6.20968C57.9494 3.27427 55.4513 0.887097 52.3795 0.887097Z" fill="white"/>
<path d="M7.82036 29.2741V30.1612H3.1788C2.66637 30.1612 2.25049 30.5586 2.25049 31.0483V41.6935C2.25049 42.1832 2.66637 42.5806 3.1788 42.5806H14.3185C14.831 42.5806 15.2468 42.1832 15.2468 41.6935V31.0483C15.2468 30.5586 14.831 30.1612 14.3185 30.1612H9.67698V29.2741C9.67698 22.0319 14.131 15.4975 20.8167 12.4539V10.512C13.0551 13.6772 7.82036 21.0596 7.82036 29.2741Z" fill="white"/>
<path d="M50.5222 29.2741V30.1612H55.1638C55.6762 30.1612 56.0921 30.5586 56.0921 31.0483V41.6935C56.0921 42.1832 55.6762 42.5806 55.1638 42.5806H44.0241C43.5116 42.5806 43.0957 42.1832 43.0957 41.6935V31.0483C43.0957 30.5586 43.5116 30.1612 44.0241 30.1612H48.6656V29.2741C48.6656 22.0319 44.2116 15.4975 37.5259 12.4539V10.512C45.2875 13.6772 50.5222 21.0596 50.5222 29.2741Z" fill="white"/>
</svg>
